<?xml version="1.0" encoding="UTF-8"?>
<svg width="700pt" height="700pt" version="1.1" viewBox="0 0 700 700" xmlns="http://www.w3.org/2000/svg" xmlns:xlink="http://www.w3.org/1999/xlink">
 <defs>
  <symbol id="t" overflow="visible">
   <path d="m5.1875-0.3125c-0.27344 0.13672-0.55469 0.24219-0.84375 0.3125-0.29297 0.070312-0.59375 0.10938-0.90625 0.10938-0.9375 0-1.6836-0.25781-2.2344-0.78125-0.54297-0.53125-0.8125-1.2422-0.8125-2.1406 0-0.90625 0.26953-1.6172 0.8125-2.1406 0.55078-0.51953 1.2969-0.78125 2.2344-0.78125 0.3125 0 0.61328 0.039063 0.90625 0.10938 0.28906 0.0625 0.57031 0.16406 0.84375 0.29688v1.1719c-0.27344-0.1875-0.54297-0.32031-0.8125-0.40625-0.26172-0.082031-0.53125-0.125-0.8125-0.125-0.52344 0-0.93359 0.16797-1.2344 0.5-0.29297 0.33594-0.4375 0.79297-0.4375 1.375 0 0.58594 0.14453 1.043 0.4375 1.375 0.30078 0.33594 0.71094 0.5 1.2344 0.5 0.28125 0 0.55078-0.039062 0.8125-0.125 0.26953-0.09375 0.53906-0.23438 0.8125-0.42188z"/>
  </symbol>
  <symbol id="d" overflow="visible">
   <path d="m3.7969-3.0781c-0.125-0.050781-0.24609-0.085937-0.35938-0.10938-0.11719-0.03125-0.23438-0.046875-0.35938-0.046875-0.34375 0-0.60938 0.10938-0.79688 0.32812s-0.28125 0.53906-0.28125 0.95312v1.9531h-1.3438v-4.2344h1.3438v0.70312c0.17578-0.28125 0.375-0.48438 0.59375-0.60938 0.22656-0.125 0.5-0.1875 0.8125-0.1875h0.15625c0.050781 0 0.125 0.011719 0.21875 0.03125z"/>
  </symbol>
  <symbol id="a" overflow="visible">
   <path d="m4.875-2.125v0.39062h-3.1719c0.039063 0.3125 0.15625 0.54688 0.34375 0.70312 0.19531 0.15625 0.47266 0.23438 0.82812 0.23438 0.28125 0 0.57031-0.039063 0.875-0.125 0.30078-0.082031 0.60938-0.20703 0.92188-0.375v1.0469c-0.32422 0.11719-0.64844 0.20312-0.96875 0.26562-0.3125 0.0625-0.63281 0.09375-0.95312 0.09375-0.76172 0-1.3555-0.19141-1.7812-0.57812-0.42969-0.39453-0.64062-0.94141-0.64062-1.6406 0-0.6875 0.20703-1.2266 0.625-1.625 0.41406-0.39453 0.98828-0.59375 1.7188-0.59375 0.66406 0 1.1953 0.20312 1.5938 0.60938 0.40625 0.39844 0.60938 0.92969 0.60938 1.5938zm-1.3906-0.45312c0-0.25-0.078125-0.45312-0.23438-0.60938-0.14844-0.16406-0.33984-0.25-0.57812-0.25-0.26172 0-0.47656 0.078125-0.64062 0.23438-0.16797 0.14844-0.27344 0.35547-0.3125 0.625z"/>
  </symbol>
  <symbol id="l" overflow="visible">
   <path d="m2.5469-1.9062c-0.28125 0-0.49609 0.054688-0.64062 0.15625-0.13672 0.09375-0.20312 0.23047-0.20312 0.40625 0 0.17969 0.054687 0.3125 0.17188 0.40625 0.11328 0.09375 0.26953 0.14062 0.46875 0.14062 0.25781 0 0.47266-0.085937 0.64062-0.26562 0.17578-0.1875 0.26562-0.41406 0.26562-0.6875v-0.15625zm2.0625-0.5v2.4062h-1.3594v-0.625c-0.1875 0.26172-0.39844 0.44922-0.625 0.5625-0.21875 0.11328-0.49219 0.17188-0.8125 0.17188-0.4375 0-0.79688-0.125-1.0781-0.375-0.27344-0.25781-0.40625-0.59375-0.40625-1 0-0.5 0.17188-0.86328 0.51562-1.0938 0.34375-0.22656 0.87891-0.34375 1.6094-0.34375h0.79688v-0.10938c0-0.21875-0.089844-0.375-0.26562-0.46875-0.16797-0.10156-0.42969-0.15625-0.78125-0.15625-0.29297 0-0.5625 0.03125-0.8125 0.09375-0.24219 0.054688-0.46875 0.14062-0.6875 0.26562v-1.0312c0.28906-0.070313 0.58203-0.125 0.875-0.15625 0.28906-0.039063 0.58203-0.0625 0.875-0.0625 0.75781 0 1.3047 0.15234 1.6406 0.45312 0.34375 0.30469 0.51562 0.79297 0.51562 1.4688z"/>
  </symbol>
  <symbol id="c" overflow="visible">
   <path d="m2.125-5.4375v1.2031h1.3906v0.96875h-1.3906v1.7969c0 0.19922 0.035156 0.33594 0.10938 0.40625 0.082031 0.0625 0.23828 0.09375 0.46875 0.09375h0.70312v0.96875h-1.1562c-0.54297 0-0.92188-0.10938-1.1406-0.32812-0.21875-0.22656-0.32812-0.60938-0.32812-1.1406v-1.7969h-0.67188v-0.96875h0.67188v-1.2031z"/>
  </symbol>
  <symbol id="k" overflow="visible">
   <path d="m3.5312-3.6094v-2.2656h1.3594v5.875h-1.3594v-0.60938c-0.1875 0.25-0.39844 0.43359-0.625 0.54688-0.21875 0.11328-0.47656 0.17188-0.76562 0.17188-0.52344 0-0.95312-0.20703-1.2969-0.625-0.33594-0.41406-0.5-0.94531-0.5-1.5938 0-0.65625 0.16406-1.1875 0.5-1.5938 0.34375-0.41406 0.77344-0.625 1.2969-0.625 0.28906 0 0.54688 0.058594 0.76562 0.17188 0.22656 0.11719 0.4375 0.29688 0.625 0.54688zm-0.89062 2.7344c0.28906 0 0.50781-0.10156 0.65625-0.3125 0.15625-0.20703 0.23438-0.51562 0.23438-0.92188s-0.078125-0.71094-0.23438-0.92188c-0.14844-0.20703-0.36719-0.3125-0.65625-0.3125-0.29297 0-0.51562 0.10547-0.67188 0.3125-0.14844 0.21094-0.21875 0.51562-0.21875 0.92188s0.070312 0.71484 0.21875 0.92188c0.15625 0.21094 0.37891 0.3125 0.67188 0.3125z"/>
  </symbol>
  <symbol id="j" overflow="visible">
   <path d="m2.9062-0.875c0.28125 0 0.5-0.10156 0.65625-0.3125 0.15625-0.20703 0.23438-0.51562 0.23438-0.92188s-0.078125-0.71094-0.23438-0.92188c-0.15625-0.20703-0.375-0.3125-0.65625-0.3125-0.29297 0-0.51562 0.10547-0.67188 0.3125-0.15625 0.21094-0.23438 0.51562-0.23438 0.92188 0 0.39844 0.078125 0.70312 0.23438 0.92188 0.15625 0.21094 0.37891 0.3125 0.67188 0.3125zm-0.90625-2.7344c0.1875-0.25 0.39062-0.42969 0.60938-0.54688 0.22656-0.11328 0.49219-0.17188 0.79688-0.17188 0.51953 0 0.94531 0.21094 1.2812 0.625 0.33203 0.40625 0.5 0.9375 0.5 1.5938 0 0.64844-0.16797 1.1797-0.5 1.5938-0.33594 0.41797-0.76172 0.625-1.2812 0.625-0.30469 0-0.57031-0.058594-0.79688-0.17188-0.21875-0.11328-0.42188-0.29688-0.60938-0.54688v0.60938h-1.3438v-5.875h1.3438z"/>
  </symbol>
  <symbol id="i" overflow="visible">
   <path d="m0.09375-4.2344h1.3594l1.125 2.875 0.96875-2.875h1.3594l-1.7812 4.6406c-0.17969 0.46875-0.38672 0.79688-0.625 0.98438-0.24219 0.1875-0.55469 0.28125-0.9375 0.28125h-0.78125v-0.89062h0.42188c0.22656 0 0.39453-0.039062 0.5-0.10938 0.10156-0.074219 0.17969-0.20312 0.23438-0.39062l0.046875-0.125z"/>
  </symbol>
  <symbol id="h" overflow="visible">
   <path d="m0.03125-5.6406h1.4688l1.5 4.1562 1.4844-4.1562h1.4688l-2.0938 5.6406h-1.7344z"/>
  </symbol>
  <symbol id="g" overflow="visible">
   <path d="m0.65625-4.2344h1.3438v4.2344h-1.3438zm0-1.6406h1.3438v1.0938h-1.3438z"/>
  </symbol>
  <symbol id="f" overflow="visible">
   <path d="m4.9062-2.5781v2.5781h-1.3594v-1.9688c0-0.36328-0.011719-0.61328-0.03125-0.75-0.011719-0.14453-0.039063-0.25-0.078125-0.3125-0.054688-0.09375-0.125-0.16016-0.21875-0.20312-0.09375-0.050781-0.19922-0.078125-0.3125-0.078125-0.28125 0-0.50781 0.10938-0.67188 0.32812-0.15625 0.21875-0.23438 0.52344-0.23438 0.90625v2.0781h-1.3438v-4.2344h1.3438v0.625c0.20703-0.25 0.42578-0.42969 0.65625-0.54688 0.22656-0.11328 0.47656-0.17188 0.75-0.17188 0.48828 0 0.85938 0.15234 1.1094 0.45312 0.25781 0.29297 0.39062 0.72656 0.39062 1.2969z"/>
  </symbol>
  <symbol id="e" overflow="visible">
   <path d="m4.0625-4.0938v1.0938c-0.17969-0.125-0.35938-0.21094-0.54688-0.26562-0.1875-0.0625-0.38281-0.09375-0.57812-0.09375-0.375 0-0.67188 0.10938-0.89062 0.32812-0.21094 0.21875-0.3125 0.52734-0.3125 0.92188 0 0.39844 0.10156 0.70312 0.3125 0.92188 0.21875 0.21875 0.51562 0.32812 0.89062 0.32812 0.20703 0 0.40625-0.03125 0.59375-0.09375 0.19531-0.0625 0.375-0.15625 0.53125-0.28125v1.1094c-0.21094 0.085938-0.42188 0.14062-0.64062 0.17188-0.21875 0.039062-0.4375 0.0625-0.65625 0.0625-0.76172 0-1.3594-0.19141-1.7969-0.57812-0.42969-0.39453-0.64062-0.94141-0.64062-1.6406 0-0.69531 0.21094-1.2383 0.64062-1.625 0.4375-0.39453 1.0352-0.59375 1.7969-0.59375 0.21875 0 0.4375 0.023437 0.65625 0.0625 0.21875 0.03125 0.42969 0.089844 0.64062 0.17188z"/>
  </symbol>
  <symbol id="b" overflow="visible">
   <path d="m2.6562-3.3594c-0.29297 0-0.52344 0.10938-0.6875 0.32812-0.15625 0.21094-0.23438 0.51562-0.23438 0.92188s0.078125 0.71875 0.23438 0.9375c0.16406 0.21094 0.39453 0.3125 0.6875 0.3125 0.30078 0 0.53125-0.10156 0.6875-0.3125 0.15625-0.21875 0.23438-0.53125 0.23438-0.9375s-0.078125-0.71094-0.23438-0.92188c-0.15625-0.21875-0.38672-0.32812-0.6875-0.32812zm0-0.96875c0.72656 0 1.2969 0.19922 1.7031 0.59375 0.41406 0.38672 0.625 0.92969 0.625 1.625 0 0.69922-0.21094 1.2461-0.625 1.6406-0.40625 0.38672-0.97656 0.57812-1.7031 0.57812-0.73047 0-1.3047-0.19141-1.7188-0.57812-0.40625-0.39453-0.60938-0.94141-0.60938-1.6406 0-0.69531 0.20312-1.2383 0.60938-1.625 0.41406-0.39453 0.98828-0.59375 1.7188-0.59375z"/>
  </symbol>
  <symbol id="s" overflow="visible">
   <path d="m3.4375-5.875v0.89062h-0.75c-0.19922 0-0.33594 0.039063-0.40625 0.10938-0.074219 0.0625-0.10938 0.17969-0.10938 0.34375v0.29688h1.1562v0.96875h-1.1562v3.2656h-1.3594v-3.2656h-0.67188v-0.96875h0.67188v-0.29688c0-0.45703 0.12891-0.79688 0.39062-1.0156 0.25781-0.21875 0.65625-0.32812 1.1875-0.32812z"/>
  </symbol>
  <symbol id="r" overflow="visible">
   <path d="m4.5625-3.5312c0.17578-0.25781 0.37891-0.45703 0.60938-0.59375 0.23828-0.13281 0.5-0.20312 0.78125-0.20312 0.48828 0 0.85938 0.15234 1.1094 0.45312 0.25781 0.29297 0.39062 0.72656 0.39062 1.2969v2.5781h-1.3594v-2.2031-0.09375-0.15625c0-0.30078-0.046875-0.51953-0.14062-0.65625-0.085937-0.13281-0.22656-0.20312-0.42188-0.20312-0.25 0-0.44922 0.10938-0.59375 0.32812-0.13672 0.21094-0.21094 0.51172-0.21875 0.90625v2.0781h-1.3594v-2.2031c0-0.46875-0.042969-0.76953-0.125-0.90625-0.074219-0.13281-0.21484-0.20312-0.42188-0.20312-0.26172 0-0.46484 0.10938-0.60938 0.32812-0.13672 0.21094-0.20312 0.51172-0.20312 0.90625v2.0781h-1.3594v-4.2344h1.3594v0.625c0.16406-0.23828 0.35156-0.41406 0.5625-0.53125 0.21875-0.125 0.45703-0.1875 0.71875-0.1875 0.28906 0 0.54688 0.074219 0.76562 0.21875 0.22656 0.13672 0.39844 0.32812 0.51562 0.57812z"/>
  </symbol>
  <symbol id="q" overflow="visible">
   <path d="m4.9062-2.5781v2.5781h-1.3594v-1.9688c0-0.36328-0.011719-0.61328-0.03125-0.75-0.011719-0.14453-0.039063-0.25-0.078125-0.3125-0.054688-0.09375-0.125-0.16016-0.21875-0.20312-0.09375-0.050781-0.19922-0.078125-0.3125-0.078125-0.28125 0-0.50781 0.10938-0.67188 0.32812-0.15625 0.21875-0.23438 0.52344-0.23438 0.90625v2.0781h-1.3438v-5.875h1.3438v2.2656c0.20703-0.25 0.42578-0.42969 0.65625-0.54688 0.22656-0.11328 0.47656-0.17188 0.75-0.17188 0.48828 0 0.85938 0.15234 1.1094 0.45312 0.25781 0.29297 0.39062 0.72656 0.39062 1.2969z"/>
  </symbol>
  <symbol id="p" overflow="visible">
   <path d="m0.70312-5.6406h1.625l2.0625 3.875v-3.875h1.375v5.6406h-1.625l-2.0469-3.875v3.875h-1.3906z"/>
  </symbol>
  <symbol id="o" overflow="visible">
   <path d="m0.60938-1.6406v-2.5938h1.3594v0.42188c0 0.23047-0.007812 0.52344-0.015625 0.875v0.6875c0 0.34375 0.007813 0.58984 0.03125 0.73438 0.019531 0.14844 0.050781 0.25781 0.09375 0.32812 0.050781 0.085938 0.11719 0.15234 0.20312 0.20312 0.09375 0.054687 0.19531 0.078125 0.3125 0.078125 0.28125 0 0.5-0.10938 0.65625-0.32812 0.16406-0.21875 0.25-0.51953 0.25-0.90625v-2.0938h1.3594v4.2344h-1.3594v-0.60938c-0.19922 0.25-0.41406 0.43359-0.64062 0.54688-0.23047 0.11328-0.48047 0.17188-0.75 0.17188-0.49219 0-0.86719-0.14844-1.125-0.45312-0.25-0.30078-0.375-0.73438-0.375-1.2969z"/>
  </symbol>
  <symbol id="n" overflow="visible">
   <path d="m0.70312-5.6406h2.4219c0.71875 0 1.2656 0.16406 1.6406 0.48438 0.38281 0.3125 0.57812 0.76562 0.57812 1.3594s-0.19531 1.0547-0.57812 1.375c-0.375 0.3125-0.92188 0.46875-1.6406 0.46875h-0.96875v1.9531h-1.4531zm1.4531 1.0625v1.5625h0.8125c0.28125 0 0.5-0.066406 0.65625-0.20312 0.15625-0.13281 0.23438-0.32812 0.23438-0.57812s-0.078125-0.44141-0.23438-0.57812c-0.15625-0.13281-0.375-0.20312-0.65625-0.20312z"/>
  </symbol>
  <symbol id="m" overflow="visible">
   <path d="m0.65625-4.2344h1.3438v4.1562c0 0.57031-0.13672 1.0039-0.40625 1.2969-0.27344 0.30078-0.66797 0.45312-1.1875 0.45312h-0.65625v-0.89062h0.23438c0.25 0 0.42188-0.058594 0.51562-0.17188 0.10156-0.11719 0.15625-0.34375 0.15625-0.6875zm0-1.6406h1.3438v1.0938h-1.3438z"/>
  </symbol>
 </defs>
 <g>
  <path d="m350 560c-85.238-108.42-234.12-171.73-291.73-282.13-98.574-189.15 127.34-380.47 291.73-214.48 164.38-166 390.28 25.328 291.72 214.48-57.621 110.4-206.5 173.71-291.72 282.13zm0-43.895c83.059-87.637 218.01-159.17 266.18-251.55 83.816-160.73-105-322.96-245.7-180.89l-20.469 20.672-20.469-20.672c-140.71-142.09-329.52 20.16-245.72 180.89 48.168 92.387 183.12 163.92 266.19 251.55z" fill-rule="evenodd"/>
  <use x="34.234375" y="583.207031" xlink:href="#t"/>
  <use x="39.914062" y="583.207031" xlink:href="#d"/>
  <use x="43.726562" y="583.207031" xlink:href="#a"/>
  <use x="48.976562" y="583.207031" xlink:href="#l"/>
  <use x="54.195312" y="583.207031" xlink:href="#c"/>
  <use x="57.894531" y="583.207031" xlink:href="#a"/>
  <use x="63.140625" y="583.207031" xlink:href="#k"/>
  <use x="71.371094" y="583.207031" xlink:href="#j"/>
  <use x="76.910156" y="583.207031" xlink:href="#i"/>
  <use x="84.644531" y="583.207031" xlink:href="#h"/>
  <use x="90.632812" y="583.207031" xlink:href="#g"/>
  <use x="93.285156" y="583.207031" xlink:href="#f"/>
  <use x="98.792969" y="583.207031" xlink:href="#e"/>
  <use x="103.378906" y="583.207031" xlink:href="#a"/>
  <use x="108.625" y="583.207031" xlink:href="#f"/>
  <use x="114.132812" y="583.207031" xlink:href="#e"/>
  <use x="118.71875" y="583.207031" xlink:href="#g"/>
  <use x="121.371094" y="583.207031" xlink:href="#b"/>
  <use x="34.234375" y="590.945312" xlink:href="#s"/>
  <use x="37.601562" y="590.945312" xlink:href="#d"/>
  <use x="41.417969" y="590.945312" xlink:href="#b"/>
  <use x="46.730469" y="590.945312" xlink:href="#r"/>
  <use x="57.484375" y="590.945312" xlink:href="#c"/>
  <use x="61.183594" y="590.945312" xlink:href="#q"/>
  <use x="66.691406" y="590.945312" xlink:href="#a"/>
  <use x="74.632812" y="590.945312" xlink:href="#p"/>
  <use x="81.105469" y="590.945312" xlink:href="#b"/>
  <use x="86.421875" y="590.945312" xlink:href="#o"/>
  <use x="91.929688" y="590.945312" xlink:href="#f"/>
  <use x="100.128906" y="590.945312" xlink:href="#n"/>
  <use x="105.800781" y="590.945312" xlink:href="#d"/>
  <use x="109.613281" y="590.945312" xlink:href="#b"/>
  <use x="114.929688" y="590.945312" xlink:href="#m"/>
  <use x="117.582031" y="590.945312" xlink:href="#a"/>
  <use x="122.828125" y="590.945312" xlink:href="#e"/>
  <use x="127.414062" y="590.945312" xlink:href="#c"/>
 </g>
</svg>
